<?xml version="1.0" standalone="no"?>
<!DOCTYPE svg PUBLIC "-//W3C//DTD SVG 20010904//EN"
 "http://www.w3.org/TR/2001/REC-SVG-20010904/DTD/svg10.dtd">
<svg version="1.0" xmlns="http://www.w3.org/2000/svg"
 width="648.000000pt" height="648.000000pt" viewBox="0 0 648.000000 648.000000"
 preserveAspectRatio="xMidYMid meet">
<metadata>
Created by potrace 1.14, written by Peter Selinger 2001-2017
</metadata>
<g transform="translate(0.000000,648.000000) scale(0.100000,-0.100000)"
fill="#000000" stroke="none">
<path d="M3570 6420 c-206 -16 -356 -63 -520 -164 l-65 -40 -160 -2 c-251 -3
-508 -46 -630 -105 -213 -105 -664 -500 -801 -704 -122 -179 -196 -329 -290
-580 -59 -159 -36 -135 -246 -258 -164 -96 -268 -173 -371 -274 -111 -110
-169 -190 -237 -328 -68 -138 -107 -252 -146 -426 -26 -117 -27 -128 -15 -208
15 -104 85 -382 140 -552 39 -123 40 -128 29 -200 -16 -116 -4 -306 27 -427
47 -184 106 -314 226 -497 64 -99 86 -144 123 -252 110 -320 240 -542 423
-720 155 -151 354 -289 569 -394 167 -81 220 -98 361 -111 208 -19 432 7 853
99 565 122 643 133 1170 154 386 15 393 16 493 80 45 29 136 92 202 139 66 48
156 107 200 130 106 58 250 154 355 236 118 94 350 328 398 402 23 36 94 198
172 394 73 183 194 475 270 648 168 381 165 369 157 712 -4 193 -10 275 -31
399 -97 600 -319 1101 -695 1568 -289 360 -878 853 -1290 1081 -164 90 -386
180 -481 194 -83 13 -95 13 -190 6z m-1265 -2395 c118 -30 217 -85 302 -167
l52 -51 66 60 c68 63 161 117 255 149 43 15 84 19 190 19 121 0 143 -3 208
-27 97 -35 172 -81 242 -148 l57 -55 70 65 c80 74 186 132 290 156 104 24 266
15 363 -21 218 -81 379 -265 424 -487 11 -55 16 -135 16 -277 l0 -199 -32 -11
c-28 -9 -719 -195 -922 -248 l-69 -18 6 -77 c9 -140 82 -250 206 -311 59 -29
75 -32 151 -32 71 1 95 5 146 29 69 31 141 99 174 163 20 40 27 44 93 64 40
11 110 32 156 45 45 14 85 23 88 20 13 -13 -32 -179 -69 -256 -33 -68 -57
-100 -127 -170 -143 -143 -281 -196 -486 -188 -177 7 -306 63 -431 186 -72 71
-132 165 -166 262 -22 63 -23 79 -28 515 -7 493 -6 487 -70 580 -94 137 -285
190 -437 121 -73 -33 -153 -112 -186 -183 -22 -47 -22 -55 -27 -698 l-5 -650
-145 0 -145 0 -5 650 c-5 643 -5 651 -27 698 -33 71 -113 150 -186 183 -158
72 -366 7 -453 -142 -53 -90 -54 -99 -54 -771 l0 -623 -145 0 -145 0 0 634 c0
715 0 720 71 866 79 162 253 302 426 344 78 19 235 20 308 1z"/>
<path d="M4090 3735 c-120 -33 -224 -139 -255 -260 -20 -78 -22 -410 -2 -403
6 3 169 47 361 99 l348 93 -4 111 c-5 132 -24 180 -98 259 -90 95 -227 135
-350 101z"/>
</g>
</svg>
