<svg width="161" height="162" viewBox="0 0 161 162" fill="none" xmlns="http://www.w3.org/2000/svg">
<g style="mix-blend-mode:multiply">
<path fill-rule="evenodd" clip-rule="evenodd" d="M83.6799 0.159042C100.398 0.430829 114.623 11.5585 127.211 22.5911C138.827 32.7715 147.641 45.4967 152.237 60.2434C156.785 74.8353 157.66 90.4503 152.881 104.953C148.121 119.398 138.586 131.987 125.858 140.292C113.546 148.325 98.6193 149.377 83.9227 149.946C68.6197 150.538 52.9917 150.976 39.537 143.632C24.89 135.637 10.3188 123.91 6.4705 107.669C2.69752 91.7453 14.3688 77.1062 20.1508 61.8141C25.576 47.4658 28.1783 31.8369 39.1798 21.1599C51.2462 9.44947 66.86 -0.114409 83.6799 0.159042Z" fill="#44BCFF" fill-opacity="0.51" style="mix-blend-mode:overlay"/>
</g>
<g style="mix-blend-mode:multiply">
<path fill-rule="evenodd" clip-rule="evenodd" d="M70.2588 6.79191C86.353 6.90369 101.005 15.4152 113.452 25.6275C125.312 35.359 133.084 48.5125 138.559 62.8314C144.296 77.8371 149.682 93.8381 145.451 109.319C141.123 125.158 129.021 137.525 115.57 146.952C102.298 156.253 86.7332 162.095 70.5101 161.838C54.4584 161.584 38.2014 156.459 26.4263 145.541C15.3419 135.263 13.3814 119.354 9.07843 104.877C4.91327 90.8637 -1.33475 76.9889 1.81086 62.7245C5.13481 47.6513 14.7332 34.7934 26.6875 25.0249C39.1785 14.8178 54.1079 6.67974 70.2588 6.79191Z" fill="#31C9FA" fill-opacity="0.35" style="mix-blend-mode:overlay"/>
</g>
<g style="mix-blend-mode:multiply">
<path fill-rule="evenodd" clip-rule="evenodd" d="M86.5051 1.87452C104.316 -0.436073 121.487 10.191 135.139 21.905C148.055 32.9876 157.619 48.1869 160.125 65.0444C162.418 80.4756 154.065 94.6675 148.095 109.069C142.66 122.177 138.648 136.725 127.039 144.847C115.53 152.9 100.548 150.487 86.6028 152.092C70.3485 153.963 53.6718 161.87 38.8074 155.001C22.9131 147.657 12.4734 131.615 6.54866 115.101C0.498871 98.2381 -2.1465 78.771 5.68219 62.6707C13.1654 47.2809 32.601 43.7086 46.258 33.4356C60.2235 22.9305 69.1883 4.12105 86.5051 1.87452Z" fill="#2EAEF7" fill-opacity="0.28" style="mix-blend-mode:overlay"/>
</g>
<path fill-rule="evenodd" clip-rule="evenodd" d="M120.484 85.9972V86.0091L95.0178 92.8659V94.4202C95.0178 99.4275 99.0532 103.486 104.031 103.486C107.928 103.486 111.247 101 112.505 97.5169L120.428 95.2181V95.2265L120.445 95.2215C120.029 103.921 112.877 110.847 104.114 110.847C95.0996 110.847 87.7177 103.518 87.6918 94.4676V77.3399C87.6851 72.3385 83.6907 68.2857 78.7029 68.2857C73.716 68.2857 69.6731 72.3385 69.6664 77.3399V89.6871V107.457H62.3404V77.3399C62.3337 72.3385 58.2901 68.2857 53.3031 68.2857C48.3161 68.2857 44.2725 72.3385 44.2666 77.3399H44.2658V107.457H37.0107V77.3517C37.0107 68.2798 44.3317 60.9254 53.3615 60.9254C58.4754 60.9254 63.04 63.2843 66.0377 66.9768C69.0362 63.2843 73.6008 60.9254 78.7138 60.9254C83.841 60.9254 88.4164 63.297 91.4141 67.0064C94.4118 63.297 98.9872 60.9254 104.114 60.9254C113.14 60.9254 120.459 68.2738 120.465 77.3399H120.489V83.1018V85.9955L120.484 85.9972ZM113.067 77.3399C113.06 72.3385 109.027 68.2857 104.053 68.2857C99.0799 68.2857 95.0479 72.3385 95.0412 77.3399V85.2459L113.067 80.3935V77.3399ZM62.3404 107.457H44.2658H62.3404Z" fill="white"/>
</svg>
